<svg style="display: none;" xmlns="http://www.w3.org/2000/svg" xmlns:xlink="http://www.w3.org/1999/xlink">
<symbol id="apple" viewBox="0 0 512.005 512.005">
    
	<g>
	<path  d="M461.852,355.712c-1.692-2.616-4.443-4.362-7.531-4.779c-40.621-5.306-69.25-42.537-63.944-83.158
		c3.748-28.694,23.84-52.588,51.465-61.205c5.61-1.798,8.701-7.803,6.903-13.413c-0.28-0.873-0.671-1.707-1.164-2.481
		c-18.641-33.642-51.786-56.779-89.792-62.677c-19.152,0.914-38.026,4.957-55.872,11.968c-12.817,5.158-26.351,8.317-40.128,9.365
		c-13.777-1.048-27.311-4.207-40.128-9.365c-17.846-7.011-36.72-11.054-55.872-11.968c-39.829,0-117.333,56.469-117.333,160
		c0,98.389,71.765,224,128,224c21.457,0.192,42.656-4.691,61.867-14.251c7.235-3.99,15.232-6.404,23.467-7.083
		c8.234,0.679,16.232,3.093,23.467,7.083c19.211,9.56,40.41,14.443,61.867,14.251c44.587,0,94.912-76.544,115.989-147.477
		C463.995,361.543,463.535,358.325,461.852,355.712z"/>
	<path  d="M251.121,128c64.772-0.071,117.263-52.561,117.333-117.333C368.454,4.776,363.679,0,357.788,0
		c-64.772,0.071-117.263,52.561-117.333,117.333C240.454,123.224,245.23,128,251.121,128z"/>
</g>
    
</symbol>


<symbol id="android" viewBox="0 0 512.034 512.034">


	<g>
		<path d="M362.684,192.034H149.35c-5.888,0-10.667,4.779-10.667,10.667v170.667c0,25.771,18.347,47.296,42.667,52.267v54.4
			c0,17.643,14.357,32,32,32c17.643,0,32-14.357,32-32v-53.333h21.333v53.333c0,17.643,14.357,32,32,32s32-14.357,32-32v-54.4
			c24.32-4.949,42.667-26.496,42.667-52.267V202.701C373.35,196.792,368.572,192.034,362.684,192.034z"/>
	
</g>

	<g>
		<path d="M311.846,56.845l17.984-41.963c2.325-5.419-0.192-11.669-5.611-13.995c-5.355-2.347-11.691,0.171-13.995,5.611
			l-17.984,41.984c-11.413-3.712-23.573-5.781-36.203-5.781c-12.629,0-24.789,2.069-36.203,5.781L201.809,6.498
			c-2.304-5.44-8.64-7.979-13.995-5.611c-5.419,2.325-7.915,8.597-5.589,13.995l17.984,41.963
			c-36.629,19.883-61.525,58.688-61.525,103.189c0,5.888,4.779,10.667,10.667,10.667h213.333c5.888,0,10.667-4.779,10.667-10.667
			C373.35,115.533,348.454,76.728,311.846,56.845z M213.35,128.034c-5.888,0-10.667-4.779-10.667-10.667s4.779-10.667,10.667-10.667
			s10.667,4.779,10.667,10.667S219.238,128.034,213.35,128.034z M298.684,128.034c-5.888,0-10.667-4.779-10.667-10.667
			s4.779-10.667,10.667-10.667s10.667,4.779,10.667,10.667S304.572,128.034,298.684,128.034z"/>
	
</g>

	<g>
		<path d="M426.684,192.034c-17.643,0-32,14.357-32,32v106.667c0,17.643,14.357,32,32,32c17.643,0,32-14.357,32-32V224.034
			C458.684,206.392,444.327,192.034,426.684,192.034z"/>
	
</g>

	<g>
		<path d="M85.35,192.034c-17.643,0-32,14.357-32,32v106.667c0,17.643,14.357,32,32,32c17.643,0,32-14.357,32-32V224.034
			C117.35,206.392,102.993,192.034,85.35,192.034z"/>
	
</g>
</symbol>

<symbol id="css" viewBox="0 0 512 512">
    <g>
		<path d="M32,0l40.8,460.8L256,512l183.136-51.168L480,0H32z M392.768,150.688l-5.152,57.888l-15.52,173.568L256,414.208
			l-0.064,0.032l-116-32.128l-8.128-90.752h56.832l4.224,47.104l63.072,17.024l0.064-0.064l63.136-17.024l8.608-78.432
			l-198.656,0.544l-5.632-53.664l209.056-2.432l4.224-57.44l-218.88,0.608l-3.68-53.376H256h141.824L392.768,150.688z"/>
	</g>
</symbol>

<symbol id="html" viewBox="-30 0 512 512">
<g>
    <path d="m31.859375 448.058594 194.253906 63.941406 194.253907-63.941406 31.859374-448.058594h-452.226562zm339.757813-373.058594-4.277344 60h-222.246094l5.417969 77h211.480469l-12.878907 180.601562-123 41.101563-123.003906-41.101563-4.203125-60.601562h60l1.214844 16.492188 65.992187 21.902343 66.003907-21.898437 5.390624-76.496094h-203.097656l-13.800781-197zm0 0"/>
</g>
</symbol>

<symbol id="js" viewBox="0 0 50 50">
<g>
    <path d="M45.274,2.325C45.084,2.118,44.817,2,44.536,2H5.464C5.183,2,4.916,2.118,4.726,2.325S4.443,2.81,4.468,3.089l3.52,39.427 c0.037,0.412,0.324,0.759,0.722,0.873l16.01,4.573C24.809,47.987,24.902,48,24.994,48s0.185-0.013,0.274-0.038l16.024-4.573 c0.398-0.114,0.685-0.461,0.722-0.873l3.518-39.427C45.557,2.81,45.463,2.532,45.274,2.325z M12,29.004l7,1.942V11h4v26l-11-3.051 V29.004z M38.054,22L37,34.25L27,37v-4.601l6.75-1.855l0.25-3.75L27,28V11h12l-0.345,4H31v8L38.054,22z"/>

</g>

</symbol>

<symbol id="php" viewBox="0 0 50 50">
<g>
    <path d="M 25 12 C 11.542969 12 1 17.710938 1 25 C 1 32.289063 11.542969 38 25 38 C 38.457031 38 49 32.289063 49 25 C 49 17.710938 38.457031 12 25 12 Z M 22.507813 16 L 25.128906 16 L 24.296875 20 L 26.636719 20 C 28.121094 20 29.117188 20.207031 29.683594 20.726563 C 30.238281 21.238281 30.40625 22.078125 30.183594 23.222656 L 29.144531 28 L 26.480469 28 L 27.4375 23.582031 C 27.554688 22.976563 27.507813 22.554688 27.304688 22.332031 C 27.101563 22.109375 26.65625 22 25.988281 22 L 23.890625 22 L 22.625 28 L 20 28 Z M 11 20 L 16.332031 20 C 18.875 20 20.414063 21.703125 19.8125 24.246094 C 19.113281 27.199219 17.238281 28 13.792969 28 L 12.144531 28 L 11.621094 31 L 8.972656 31 Z M 32 20 L 37.332031 20 C 39.875 20 41.414063 21.703125 40.8125 24.246094 C 40.113281 27.199219 38.238281 28 34.792969 28 L 33.144531 28 L 32.621094 31 L 29.972656 31 Z M 13.269531 22 L 12.515625 26 L 14.226563 26 C 15.707031 26 17.082031 25.832031 17.3125 23.625 C 17.398438 22.769531 17.042969 22 15.332031 22 Z M 34.269531 22 L 33.515625 26 L 35.226563 26 C 36.707031 26 38.082031 25.832031 38.3125 23.625 C 38.398438 22.769531 38.042969 22 36.332031 22 Z"/>
</g>

</symbol>

<symbol id="facebook" viewBox="0 0 512 512">
	<g>
	<path d="m437 0h-362c-41.351562 0-75 33.648438-75 75v362c0 41.351562 33.648438 75 75 75h151v-181h-60v-90h60v-61c0-49.628906 40.371094-90 90-90h91v90h-91v61h91l-15 90h-76v181h121c41.351562 0 75-33.648438 75-75v-362c0-41.351562-33.648438-75-75-75zm0 0"/>
	</g>
</symbol>

<symbol id="github" viewBox="0 0 438.536 438.536">
    <g>
		<path d="M158.173,352.599c-3.049,0.568-4.381,1.999-3.999,4.281c0.38,2.283,2.093,3.046,5.138,2.283
			c3.049-0.76,4.38-2.095,3.997-3.997C162.931,353.074,161.218,352.216,158.173,352.599z"/>
		<path d="M141.898,354.885c-3.046,0-4.568,1.041-4.568,3.139c0,2.474,1.619,3.518,4.853,3.138c3.046,0,4.57-1.047,4.57-3.138
			C146.753,355.553,145.134,354.502,141.898,354.885z"/>
		<path d="M119.629,354.022c-0.76,2.095,0.478,3.519,3.711,4.284c2.855,1.137,4.664,0.568,5.424-1.714
			c0.572-2.091-0.666-3.61-3.711-4.568C122.197,351.265,120.39,351.922,119.629,354.022z"/>
		<path d="M414.41,24.123C398.326,8.042,378.964,0,356.309,0H82.225C59.577,0,40.208,8.042,24.123,24.123
			C8.042,40.207,0,59.576,0,82.225v274.088c0,22.65,8.042,42.017,24.123,58.098c16.084,16.084,35.454,24.126,58.102,24.126h63.953
			c4.184,0,7.327-0.144,9.42-0.424c2.092-0.288,4.184-1.526,6.279-3.717c2.096-2.187,3.14-5.376,3.14-9.562
			c0-0.568-0.05-7.046-0.144-19.417c-0.097-12.375-0.144-22.176-0.144-29.41l-6.567,1.143c-4.187,0.76-9.469,1.095-15.846,0.999
			c-6.374-0.096-12.99-0.76-19.841-1.998c-6.855-1.239-13.229-4.093-19.13-8.562c-5.898-4.477-10.085-10.328-12.56-17.559
			l-2.856-6.571c-1.903-4.373-4.899-9.229-8.992-14.554c-4.093-5.332-8.232-8.949-12.419-10.852l-1.999-1.428
			c-1.331-0.951-2.568-2.098-3.711-3.429c-1.141-1.335-1.997-2.669-2.568-3.997c-0.571-1.335-0.097-2.43,1.427-3.289
			c1.524-0.855,4.281-1.279,8.28-1.279l5.708,0.855c3.808,0.76,8.516,3.042,14.134,6.851c5.614,3.806,10.229,8.754,13.846,14.843
			c4.38,7.806,9.657,13.75,15.846,17.843c6.184,4.097,12.419,6.143,18.699,6.143s11.704-0.476,16.274-1.424
			c4.565-0.954,8.848-2.385,12.847-4.288c1.713-12.751,6.377-22.559,13.988-29.41c-10.848-1.143-20.602-2.854-29.265-5.14
			c-8.658-2.286-17.605-5.995-26.835-11.136c-9.234-5.14-16.894-11.512-22.985-19.13c-6.09-7.618-11.088-17.61-14.987-29.978
			c-3.901-12.375-5.852-26.652-5.852-42.829c0-23.029,7.521-42.637,22.557-58.814c-7.044-17.32-6.379-36.732,1.997-58.242
			c5.52-1.714,13.706-0.428,24.554,3.855c10.85,4.286,18.794,7.951,23.84,10.992c5.046,3.042,9.089,5.614,12.135,7.71
			c17.705-4.949,35.976-7.423,54.818-7.423c18.841,0,37.115,2.474,54.821,7.423l10.849-6.852c7.426-4.57,16.18-8.757,26.269-12.562
			c10.088-3.806,17.795-4.854,23.127-3.14c8.562,21.51,9.328,40.922,2.279,58.241c15.036,16.179,22.559,35.786,22.559,58.815
			c0,16.18-1.951,30.505-5.852,42.969c-3.898,12.467-8.939,22.463-15.13,29.981c-6.184,7.519-13.894,13.843-23.124,18.986
			c-9.232,5.137-18.178,8.853-26.84,11.132c-8.661,2.286-18.414,4.004-29.263,5.147c9.891,8.562,14.839,22.072,14.839,40.538v68.238
			c0,3.237,0.472,5.852,1.424,7.851c0.958,1.998,2.478,3.374,4.571,4.141c2.102,0.76,3.949,1.235,5.571,1.424
			c1.622,0.191,3.949,0.287,6.995,0.287h63.953c22.648,0,42.018-8.042,58.095-24.126c16.084-16.084,24.126-35.454,24.126-58.102
			V82.225C438.533,59.576,430.491,40.204,414.41,24.123z"/>
		<path d="M86.793,319.195c-1.331,0.948-1.141,2.471,0.572,4.565c1.906,1.902,3.427,2.189,4.57,0.855
			c1.331-0.948,1.141-2.471-0.575-4.569C89.458,318.336,87.936,318.049,86.793,319.195z"/>
		<path d="M77.374,312.057c-0.57,1.335,0.096,2.478,1.999,3.426c1.521,0.955,2.762,0.767,3.711-0.568
			c0.57-1.335-0.096-2.478-1.999-3.433C79.182,310.91,77.945,311.102,77.374,312.057z"/>
		<path d="M95.646,330.331c-1.715,0.948-1.715,2.666,0,5.137c1.713,2.478,3.328,3.142,4.853,1.998c1.714-1.334,1.714-3.142,0-5.427
			C98.978,329.571,97.359,328.993,95.646,330.331z"/>
		<path d="M105.641,343.174c-1.714,1.526-1.336,3.327,1.142,5.428c2.281,2.279,4.185,2.566,5.708,0.849
			c1.524-1.519,1.143-3.326-1.142-5.42C109.068,341.751,107.164,341.463,105.641,343.174z"/>
	</g>
</symbol>

<symbol id="instagram" viewBox="0 0 512 512">
    <g>
	<path d="m370.59375 169.304688c-2.355469-6.382813-6.113281-12.160157-10.996094-16.902344-4.742187-4.882813-10.515625-8.640625-16.902344-10.996094-5.179687-2.011719-12.960937-4.40625-27.292968-5.058594-15.503906-.707031-20.152344-.859375-59.402344-.859375-39.253906 0-43.902344.148438-59.402344.855469-14.332031.65625-22.117187 3.050781-27.292968 5.0625-6.386719 2.355469-12.164063 6.113281-16.902344 10.996094-4.882813 4.742187-8.640625 10.515625-11 16.902344-2.011719 5.179687-4.40625 12.964843-5.058594 27.296874-.707031 15.5-.859375 20.148438-.859375 59.402344 0 39.25.152344 43.898438.859375 59.402344.652344 14.332031 3.046875 22.113281 5.058594 27.292969 2.359375 6.386719 6.113281 12.160156 10.996094 16.902343 4.742187 4.882813 10.515624 8.640626 16.902343 10.996094 5.179688 2.015625 12.964844 4.410156 27.296875 5.0625 15.5.707032 20.144532.855469 59.398438.855469 39.257812 0 43.90625-.148437 59.402344-.855469 14.332031-.652344 22.117187-3.046875 27.296874-5.0625 12.820313-4.945312 22.953126-15.078125 27.898438-27.898437 2.011719-5.179688 4.40625-12.960938 5.0625-27.292969.707031-15.503906.855469-20.152344.855469-59.402344 0-39.253906-.148438-43.902344-.855469-59.402344-.652344-14.332031-3.046875-22.117187-5.0625-27.296874zm-114.59375 162.179687c-41.691406 0-75.488281-33.792969-75.488281-75.484375s33.796875-75.484375 75.488281-75.484375c41.6875 0 75.484375 33.792969 75.484375 75.484375s-33.796875 75.484375-75.484375 75.484375zm78.46875-136.3125c-9.742188 0-17.640625-7.898437-17.640625-17.640625s7.898437-17.640625 17.640625-17.640625 17.640625 7.898437 17.640625 17.640625c-.003906 9.742188-7.898437 17.640625-17.640625 17.640625zm0 0"/><path d="m305 256c0 27.0625-21.9375 49-49 49s-49-21.9375-49-49 21.9375-49 49-49 49 21.9375 49 49zm0 0"/><path d="m475.074219 0h-438.148438c-20.394531 0-36.925781 16.53125-36.925781 36.925781v438.148438c0 20.394531 16.53125 36.925781 36.925781 36.925781h438.148438c20.394531 0 36.925781-16.53125 36.925781-36.925781v-438.148438c0-20.394531-16.53125-36.925781-36.925781-36.925781zm-72.960938 316.605469c-.710937 15.648437-3.199219 26.332031-6.832031 35.683593-7.636719 19.746094-23.246094 35.355469-42.992188 42.992188-9.347656 3.632812-20.035156 6.117188-35.679687 6.832031-15.675781.714844-20.683594.886719-60.605469.886719-39.925781 0-44.929687-.171875-60.609375-.886719-15.644531-.714843-26.332031-3.199219-35.679687-6.832031-9.8125-3.691406-18.695313-9.476562-26.039063-16.957031-7.476562-7.339844-13.261719-16.226563-16.953125-26.035157-3.632812-9.347656-6.121094-20.035156-6.832031-35.679687-.722656-15.679687-.890625-20.6875-.890625-60.609375s.167969-44.929688.886719-60.605469c.710937-15.648437 3.195312-26.332031 6.828125-35.683593 3.691406-9.808594 9.480468-18.695313 16.960937-26.035157 7.339844-7.480469 16.226563-13.265625 26.035157-16.957031 9.351562-3.632812 20.035156-6.117188 35.683593-6.832031 15.675781-.714844 20.683594-.886719 60.605469-.886719s44.929688.171875 60.605469.890625c15.648437.710937 26.332031 3.195313 35.683593 6.824219 9.808594 3.691406 18.695313 9.480468 26.039063 16.960937 7.476563 7.34375 13.265625 16.226563 16.953125 26.035157 3.636719 9.351562 6.121094 20.035156 6.835938 35.683593.714843 15.675781.882812 20.683594.882812 60.605469s-.167969 44.929688-.886719 60.605469zm0 0"/>
	</g>
</symbol>

<symbol id="linkedin" viewBox="0 0 512 512">
    <g>
		<path d="m475.074219 0h-438.148438c-20.394531 0-36.925781 16.53125-36.925781 36.925781v438.148438c0 20.394531 16.53125 36.925781 36.925781 36.925781h438.148438c20.394531 0 36.925781-16.53125 36.925781-36.925781v-438.148438c0-20.394531-16.53125-36.925781-36.925781-36.925781zm-293.464844 387h-62.347656v-187.574219h62.347656zm-31.171875-213.1875h-.40625c-20.921875 0-34.453125-14.402344-34.453125-32.402344 0-18.40625 13.945313-32.410156 35.273437-32.410156 21.328126 0 34.453126 14.003906 34.859376 32.410156 0 18-13.53125 32.402344-35.273438 32.402344zm255.984375 213.1875h-62.339844v-100.347656c0-25.21875-9.027343-42.417969-31.585937-42.417969-17.222656 0-27.480469 11.601563-31.988282 22.800781-1.648437 4.007813-2.050781 9.609375-2.050781 15.214844v104.75h-62.34375s.816407-169.976562 0-187.574219h62.34375v26.558594c8.285157-12.78125 23.109375-30.960937 56.1875-30.960937 41.019531 0 71.777344 26.808593 71.777344 84.421874zm0 0"/>
	</g>
</symbol>

<symbol id="phone" viewBox="0 0 30.055 30.056" >
	<g>
		<path d="M25.839,25.996l-3.5-4.338c-0.292-0.36-0.908-0.648-1.371-0.642l-1.478,0.028c-1.267,0.729-3.747,1.804-7.177-4.139
			c-3.43-5.941-1.26-7.552,0.006-8.283l0.762-1.266c0.239-0.398,0.297-1.076,0.131-1.509l-2.006-5.2
			c-0.167-0.434-0.677-0.718-1.132-0.634L7.611,0.466C2.835,3.225,2.796,11.481,7.525,19.67c4.729,8.191,11.898,12.287,16.675,9.529
			l1.623-1.908C26.123,26.939,26.13,26.355,25.839,25.996z"/>
		<path d="M17.933,6.439c4.736,1.27,7.557,6.154,6.287,10.891c-0.091,0.339,0.111,0.687,0.45,0.777
			c0.339,0.09,0.688-0.109,0.778-0.451c1.45-5.412-1.773-10.992-7.186-12.443c-0.339-0.09-0.688,0.109-0.777,0.448
			C17.395,6.001,17.595,6.349,17.933,6.439z"/>
		<path d="M17.277,8.894c3.382,0.904,5.396,4.395,4.491,7.777c-0.092,0.339,0.108,0.687,0.448,0.778
			c0.339,0.09,0.688-0.11,0.777-0.451c1.088-4.059-1.329-8.244-5.388-9.333c-0.34-0.092-0.687,0.11-0.778,0.449
			C16.737,8.456,16.938,8.804,17.277,8.894z"/>
		<path d="M16.62,11.347c2.029,0.543,3.237,2.638,2.694,4.666c-0.092,0.341,0.109,0.688,0.448,0.778
			c0.339,0.091,0.688-0.109,0.778-0.45c0.725-2.705-0.887-5.497-3.593-6.221c-0.339-0.092-0.687,0.11-0.778,0.448
			C16.08,10.908,16.28,11.257,16.62,11.347z"/>
		<path d="M15.962,13.801c0.676,0.181,1.08,0.88,0.898,1.555c-0.091,0.342,0.11,0.688,0.448,0.778
			c0.341,0.093,0.688-0.108,0.778-0.448c0.363-1.352-0.442-2.748-1.795-3.11c-0.339-0.091-0.688,0.108-0.778,0.448
			C15.422,13.36,15.623,13.709,15.962,13.801z"/>
	</g>
</symbol>

<symbol id="email" viewBox="0 0 512 512">
    <g>
			<path d="M394.667,213.333c-64.698,0-117.333,52.635-117.333,117.333S329.969,448,394.667,448
				c20.625,0,40.906-5.427,58.677-15.708c5.094-2.948,6.844-9.469,3.885-14.573c-2.948-5.104-9.479-6.865-14.573-3.885
				c-14.521,8.396-31.115,12.833-47.99,12.833c-52.938,0-96-43.063-96-96s43.063-96,96-96s96,43.063,96,96v10.667
				c0,11.76-9.573,21.333-21.333,21.333c-11.76,0-21.333-9.573-21.333-21.333v-42.667c0-5.896-4.771-10.667-10.667-10.667
				c-2.869,0-5.447,1.161-7.362,3c-9.428-8.401-21.714-13.667-35.305-13.667c-29.406,0-53.333,23.927-53.333,53.333
				S365.26,384,394.667,384c15.896,0,30.03-7.131,39.81-18.202c7.727,10.977,20.44,18.202,34.857,18.202
				C492.865,384,512,364.865,512,341.333v-10.667C512,265.969,459.365,213.333,394.667,213.333z M394.667,362.667
				c-17.646,0-32-14.354-32-32c0-17.646,14.354-32,32-32s32,14.354,32,32C426.667,348.313,412.313,362.667,394.667,362.667z"/>
			<path d="M17.698,88.688l175.719,142.958c0.583,0.479,1.219,0.896,1.885,1.229c2.344,1.198,4.823,1.802,7.385,1.802
				c2.708,0,5.417-0.708,9.375-3.104L387.646,88.698c2.604-2.115,4.052-5.323,3.927-8.667s-1.813-6.438-4.563-8.354
				C379.813,66.656,371.385,64,362.667,64h-320c-8.719,0-17.135,2.646-24.333,7.667c-2.75,1.906-4.438,5-4.563,8.354
				C13.646,83.365,15.094,86.573,17.698,88.688z"/>
			<path d="M256,330.667C256,254.208,318.208,192,394.667,192c5.896,0,10.667-4.771,10.667-10.667V124.24
				c0-4.115-2.365-7.865-6.083-9.635c-3.719-1.729-8.115-1.219-11.313,1.365L224.281,249.146l-1.875,1.24
				c-12.302,7.552-27.417,7.938-41.302-1.229L17.396,115.958c-3.177-2.594-7.573-3.115-11.313-1.365
				C2.365,116.365,0,120.115,0,124.229V320c0,23.531,19.135,42.667,42.667,42.667h204.365c3.094,0,6.031-1.344,8.063-3.677
				c2.021-2.333,2.938-5.438,2.5-8.5C256.51,342.906,256,336.604,256,330.667z"/>
		</g>
</symbol>
<symbol id="light" viewBox="0 0 432.4 432.4">
    <g>
	<g>
	<g>
		<g>
			<path  d="M216.529,93.2c-61.2,0-111.2,50-111.2,111.2c0,32,14,62.8,37.6,83.6c17.6,17.6,16,55.2,15.6,55.6
				c0,2,0.4,3.6,2,5.2c1.2,1.2,3.2,2,4.8,2h102c2,0,3.6-0.8,4.8-2c1.2-1.2,2-3.2,2-5.2c0-0.4-2-38,15.6-55.6
				c0.4-0.4,0.8-0.8,1.2-1.2c23.2-21.2,36.8-51.2,36.8-82.4C327.729,143.2,277.729,93.2,216.529,93.2z M280.529,277.6
				c-0.4,0.4-1.2,1.2-1.2,1.6c-15.6,16.8-18.4,44.4-18.8,57.6h-88.4c-0.4-13.2-3.2-42-20-59.2c-21.2-18.4-33.6-45.2-33.6-73.6
				c0-54,43.6-97.6,97.6-97.6s97.6,43.6,97.6,97.6C313.729,232.4,301.729,259.2,280.529,277.6z"/>
			<path  d="M216.129,121.6c-3.6,0-6.8,3.2-6.8,6.8c0,3.6,3.2,6.8,6.8,6.8c40.4,0,72.8,32.8,72.8,72.8
				c0,3.6,3.2,6.8,6.8,6.8c3.6,0,6.8-3.2,6.8-6.8C302.929,160.4,264.129,121.6,216.129,121.6z"/>
			<path  d="M260.529,358.4h-88.8c-9.2,0-16.8,7.6-16.8,16.8s7.6,16.8,16.8,16.8h88.4
				c9.6-0.4,17.2-7.6,17.2-16.8C277.329,366,269.729,358.4,260.529,358.4z M260.529,378h-88.8c-1.6,0-3.2-1.2-3.2-3.2
				s1.2-3.2,3.2-3.2h88.4c1.6,0,3.2,1.2,3.2,3.2S262.129,378,260.529,378z"/>
			<path  d="M247.329,398.8h-62.4c-9.2,0-16.8,7.6-16.8,16.8s7.6,16.8,16.8,16.8h62.4
				c9.2,0,16.8-7.6,16.8-16.8C264.129,406,256.529,398.8,247.329,398.8z M247.329,418.4h-62.4c-1.6,0-3.2-1.2-3.2-3.2
				s1.2-3.2,3.2-3.2h62.4c1.6,0,3.2,1.2,3.2,3.2S248.929,418.4,247.329,418.4z"/>
			<path  d="M216.129,60c4,0,6.8-3.2,6.8-6.8V6.8c0-3.6-3.2-6.8-6.8-6.8c-3.6,0-6.8,3.2-6.8,6.8v46.4
				C209.329,56.8,212.529,60,216.129,60z"/>
			<path  d="M329.329,34.4c-3.2-2.4-7.2-1.2-9.2,1.6l-25.6,38.4c-2.4,3.2-1.6,7.6,1.6,9.6
				c1.2,0.8,2.4,1.2,3.6,1.2c2.4,0,4.4-1.2,5.6-3.2l25.6-38.4C333.329,40.8,332.529,36.4,329.329,34.4z"/>
			<path  d="M134.929,83.6c1.2,0,2.4-0.4,3.6-1.2c3.2-2,4-6.4,2-9.6l-24.8-38.8c-2-3.2-6.4-4-9.6-2
				s-4,6.4-2,9.6l24.8,38.8C130.529,82.8,132.529,83.6,134.929,83.6z"/>
			<path  d="M86.529,126l-40.4-22c-3.2-1.6-7.6-0.4-9.2,2.8c-2,3.2-0.8,7.6,2.8,9.2l40.4,22
				c1.2,0.4,2,0.8,3.2,0.8c2.4,0,4.8-1.2,6-3.6C90.929,132,89.729,127.6,86.529,126z"/>
			<path  d="M395.729,106.8c-1.6-3.2-6-4.4-9.2-2.8l-40.8,22c-3.2,1.6-4.4,6-2.8,9.2c1.2,2.4,3.6,3.6,6,3.6
				c1.2,0,2.4-0.4,3.2-0.8l40.8-22C396.129,114.4,397.329,110,395.729,106.8z"/>
		</g>
	</g>
</g>
</g>
</symbol>

<symbol id="statistics" viewBox="0 0 480 480">
<g>
    <g>
	<g>
		<g>
			<rect y="464" width="480" height="16"/>
			<path d="M32,448h80c4.418,0,8-3.582,8-8V296c0-4.418-3.582-8-8-8H32c-4.418,0-8,3.582-8,8v144C24,444.418,27.582,448,32,448z
				 M40,304h64v128H40V304z"/>
			<path d="M256,448h80c4.418,0,8-3.582,8-8V200c0-4.418-3.582-8-8-8h-80c-4.418,0-8,3.582-8,8v240C248,444.418,251.582,448,256,448
				z M264,208h64v224h-64V208z"/>
			<path d="M144,448h80c4.418,0,8-3.582,8-8V104c0-4.418-3.582-8-8-8h-80c-4.418,0-8,3.582-8,8v336C136,444.418,139.582,448,144,448
				z M152,112h64v320h-64V112z"/>
			<path d="M368,448h80c4.418,0,8-3.582,8-8V8c0-4.418-3.582-8-8-8h-80c-4.418,0-8,3.582-8,8v432C360,444.418,363.582,448,368,448z
				 M376,16h64v416h-64V16z"/>
		</g>
	</g>
</g>
</g>
</symbol>

<symbol id="computer" viewBox="0 0 512.002 512.002">
    <g>
	    <g><path d="m484.098 168.413h-28.693v-96.97c0-22.228-18.084-40.311-40.312-40.311h-347.337c-22.228 0-40.311 18.083-40.311 40.311v246.11c0 9.259 3.264 17.963 8.747 24.897h-23.213c-7.157-.001-12.979 5.846-12.979 13.031v19.028c0 18.29 14.769 33.169 32.922 33.169h186.003c4.143 0 7.5-3.358 7.5-7.5s-3.357-7.5-7.5-7.5h-186.003c-9.882 0-17.922-8.15-17.922-18.169v-17.06h315.961v35.229h-77.036c-4.143 0-7.5 3.358-7.5 7.5s3.357 7.5 7.5 7.5h77.036v45.288c0 15.387 12.518 27.905 27.904 27.905h125.232c15.387 0 27.904-12.518 27.904-27.905 0-11.462 0-248.448 0-256.648.001-15.387-12.517-27.905-27.903-27.905zm-153.137 174.036h-267.741c-11.882-2.179-20.774-12.784-20.774-24.897v-246.109c0-13.957 11.354-25.311 25.311-25.311h347.337c13.957 0 25.312 11.354 25.312 25.311v96.971h-14.477c0-10.489 0-83.129 0-94.64 0-7.381-6.005-13.387-13.386-13.387-2.043 0-331.807 0-342.234 0-7.382 0-13.387 6.005-13.387 13.387v241.08c0 7.381 6.005 13.387 13.387 13.387h260.653v14.208zm79.967-267.063v19.913h-300.74v-19.913zm-315.74 0v19.913h-23.267v-19.913zm235.773 120.931v116.923h-259.04v-202.941h339.007v58.114h-52.062c-15.387 0-27.905 12.518-27.905 27.904zm15 29.445h15.081v15.018h-15.081zm151.041 227.204c0 7.116-5.789 12.905-12.904 12.905h-125.233c-7.115 0-12.904-5.789-12.904-12.905v-21.495h151.041zm0-36.495h-151.041c0-61.225 0-99.53 0-160.691h151.041zm0-175.691h-120.96v-15.018h120.96zm0-30.018c-7.655 0-144.215 0-151.041 0v-14.445c0-7.115 5.789-12.904 12.904-12.904h125.232c7.115 0 12.904 5.789 12.904 12.904v14.445z"/><path d="m413.51 454.593h15.943c4.143 0 7.5-3.358 7.5-7.5s-3.357-7.5-7.5-7.5h-15.943c-4.143 0-7.5 3.358-7.5 7.5s3.357 7.5 7.5 7.5z"/><path d="m266.171 199.078-32.184-21.945c-10.185-6.946-24.017.362-24.017 12.691v43.891c0 12.326 13.827 19.638 24.017 12.691l32.184-21.945c8.936-6.093 8.934-19.292 0-25.383zm-8.451 12.99-32.184 21.946c-.097.065-.18.123-.373.021-.192-.102-.192-.203-.192-.32v-43.891c0-.117 0-.218.192-.32.076-.04.135-.056.185-.056.076 0 .13.037.188.077l32.184 21.945c.067.046.158.108.158.299 0 .192-.091.254-.158.299z"/><path d="m236.425 141.552c-38.718 0-70.218 31.5-70.218 70.217s31.5 70.217 70.218 70.217 70.217-31.499 70.217-70.217-31.499-70.217-70.217-70.217zm0 125.435c-30.447 0-55.218-24.77-55.218-55.217s24.771-55.217 55.218-55.217c30.446 0 55.217 24.771 55.217 55.217s-24.771 55.217-55.217 55.217z"/><path d="m419.907 304.176c-9.527-6.496-22.422.367-22.422 11.85v38.2c0 11.577 12.974 18.292 22.423 11.849l28.01-19.1c8.344-5.688 8.342-18.011.001-23.699zm-7.422 48.805v-35.711l26.186 17.856z"/><path d="m421.481 397.211c26.099 0 49.576-16.494 58.42-41.043 1.404-3.897-.616-8.194-4.514-9.598-3.896-1.402-8.194.617-9.598 4.514-6.708 18.618-24.515 31.127-44.309 31.127-25.963 0-47.085-21.123-47.085-47.085s21.122-47.085 47.085-47.085c20.626 0 38.666 13.202 44.892 32.851 1.25 3.949 5.468 6.136 9.414 4.885 3.949-1.251 6.136-5.466 4.885-9.415-8.208-25.911-31.995-43.32-59.19-43.32-34.233 0-62.085 27.852-62.085 62.085s27.852 62.084 62.085 62.084z"/></g>
	</g>
</symbol>

<symbol id="code" viewBox="0 -25 424 424">
    <g>
	    <path d="m167.289062 272.132812c-1.601562 0-3.214843-.550781-4.53125-1.671874l-45.296874-38.570313c-1.5625-1.332031-2.460938-3.277344-2.460938-5.332031 0-2.050782.902344-3.996094 2.460938-5.328125l45.296874-38.570313c2.941407-2.507812 7.359376-2.152344 9.867188.789063 2.503906 2.945312 2.152344 7.363281-.792969 9.867187l-39.035156 33.242188 39.035156 33.242187c2.945313 2.507813 3.296875 6.925781.792969 9.867188-1.386719 1.628906-3.355469 2.464843-5.335938 2.464843zm0 0"/><path d="m256.710938 272.132812c-1.980469 0-3.949219-.835937-5.332032-2.464843-2.507812-2.941407-2.152344-7.359375.789063-9.867188l39.035156-33.242187-39.035156-33.242188c-2.941407-2.503906-3.296875-6.921875-.789063-9.867187 2.503906-2.941407 6.925782-3.296875 9.863282-.789063l45.296874 38.570313c1.5625 1.332031 2.460938 3.277343 2.460938 5.328125 0 2.054687-.898438 4-2.460938 5.332031l-45.296874 38.570313c-1.316407 1.121093-2.929688 1.671874-4.53125 1.671874zm0 0"/><path d="m195.964844 301.0625c-.480469 0-.964844-.050781-1.453125-.152344-3.78125-.796875-6.203125-4.511718-5.40625-8.292968l28.230469-134.035157c.796874-3.78125 4.507812-6.203125 8.292968-5.40625 3.78125.796875 6.203125 4.507813 5.40625 8.292969l-28.230468 134.035156c-.695313 3.296875-3.601563 5.558594-6.839844 5.558594zm0 0"/><path d="m377 374.085938h-330c-25.914062 0-47-21.082032-47-47v-280.085938c0-25.914062 21.085938-47 47-47h330c25.914062 0 47 21.085938 47 47v280.085938c0 25.917968-21.085938 47-47 47zm-330-360.085938c-18.195312 0-33 14.804688-33 33v280.085938c0 18.195312 14.804688 33 33 33h330c18.195312 0 33-14.804688 33-33v-280.085938c0-18.195312-14.804688-33-33-33zm0 0"/><path d="m417 112.089844h-410c-3.867188 0-7-3.132813-7-7 0-3.863282 3.132812-7 7-7h410c3.867188 0 7 3.136718 7 7 0 3.867187-3.132812 7-7 7zm0 0"/><path d="m119.601562 78.59375c-12.210937 0-22.152343-9.941406-22.152343-22.152344 0-12.214844 9.941406-22.152344 22.152343-22.152344 12.214844 0 22.152344 9.9375 22.152344 22.152344 0 12.210938-9.9375 22.152344-22.152344 22.152344zm0-30.304688c-4.492187 0-8.152343 3.65625-8.152343 8.152344s3.660156 8.152344 8.152343 8.152344c4.496094 0 8.152344-3.65625 8.152344-8.152344s-3.65625-8.152344-8.152344-8.152344zm0 0"/><path d="m51.539062 78.378906c-12.214843 0-22.152343-9.9375-22.152343-22.152344 0-12.214843 9.9375-22.152343 22.152343-22.152343 12.214844 0 22.152344 9.9375 22.152344 22.152343 0 12.214844-9.9375 22.152344-22.152344 22.152344zm0-30.304687c-4.492187 0-8.152343 3.660156-8.152343 8.152343 0 4.496094 3.660156 8.152344 8.152343 8.152344 4.496094 0 8.152344-3.65625 8.152344-8.152344 0-4.492187-3.65625-8.152343-8.152344-8.152343zm0 0"/><path d="m187.664062 78.804688c-12.210937 0-22.148437-9.9375-22.148437-22.152344 0-12.210938 9.9375-22.148438 22.148437-22.148438 12.214844 0 22.152344 9.9375 22.152344 22.148438 0 12.214844-9.9375 22.152344-22.152344 22.152344zm0-30.304688c-4.492187 0-8.148437 3.65625-8.148437 8.152344s3.65625 8.152344 8.148437 8.152344c4.496094 0 8.152344-3.65625 8.152344-8.152344s-3.65625-8.152344-8.152344-8.152344zm0 0"/>
	</g>
</symbol>

<symbol id="speed" viewBox="0 0 64 64">
    <g>
	    <path d="m6 16h2v2h-2z"/><path d="m10 16h2v2h-2z"/><path d="m14 16h2v2h-2z"/><path d="m54.1 30.664 7.546-13.072a4.993 4.993 0 0 0 -1.825-6.828l-13.858-8a4.994 4.994 0 0 0 -6.828 1.824l-4.279 7.412h-29.856a3 3 0 0 0 -3 3v38a3 3 0 0 0 3 3h27.062a16.984 16.984 0 1 0 22.038-25.336zm-6.17-23.3.5-.862 6.929 4-.5.862a1 1 0 0 1 -1.366.367l-5.2-3a1 1 0 0 1 -.365-1.366zm-7.063-1.77a2.993 2.993 0 0 1 4.093-1.094l1.734 1-.5.861a3 3 0 0 0 1.1 4.1l5.2 3a3 3 0 0 0 4.1-1.1l.5-.863 1.734 1a2.991 2.991 0 0 1 1.093 4.093l-7.565 13.1a16.938 16.938 0 0 0 -23.9 11.459l-3.5-2.017a3 3 0 0 1 -1.093-4.093zm-35.867 8.406h28.7l-3.464 6h-26.236v-5a1 1 0 0 1 1-1zm-1 39v-31h4v32h-3a1 1 0 0 1 -1-1zm6 1v-32h19.084l-6.951 12.041a5 5 0 0 0 1.827 6.825l4.131 2.381a16.866 16.866 0 0 0 2.509 10.753zm35 6a15 15 0 1 1 15-15 15.017 15.017 0 0 1 -15 15z"/><path d="m45 34a11.013 11.013 0 0 0 -11 11h2a9.01 9.01 0 0 1 9-9z"/><path d="m52.293 36.293-6.008 6.007a2.951 2.951 0 0 0 -1.285-.3 3 3 0 1 0 3 3 2.951 2.951 0 0 0 -.3-1.285l6.008-6.008zm-7.293 9.707a1 1 0 1 1 1-1 1 1 0 0 1 -1 1z"/><path d="m14 25h8v2h-8z"/><path d="m14 29h6v2h-6z"/><path d="m14 33h6v2h-6z"/><path d="m14 37h6v2h-6z"/><path d="m14 41h8v2h-8z"/><path d="m14 45h12v2h-12z"/><path d="m14 49h12v2h-12z"/>
	</g>
</symbol>

<symbol id="up" viewBox="0 0 93.934 93.934">
	<g>
	    <g>
	<path d="M0,46.967c0,25.939,21.028,46.967,46.967,46.967c25.939,0,46.967-21.027,46.967-46.967C93.934,21.027,72.906,0,46.967,0
		C21.029,0,0,21.028,0,46.967z M78.262,67.439L46.967,50.596L15.672,67.439l31.295-51.613L78.262,67.439z"/>
</g>
	</g>
</symbol>
</svg>