<svg  viewBox="0 0 64 64"  xmlns="http://www.w3.org/2000/svg"><g id="Test-Speed_Test"><path d="m6 16h2v2h-2z"/><path d="m10 16h2v2h-2z"/><path d="m14 16h2v2h-2z"/><path d="m54.1 30.664 7.546-13.072a4.993 4.993 0 0 0 -1.825-6.828l-13.858-8a4.994 4.994 0 0 0 -6.828 1.824l-4.279 7.412h-29.856a3 3 0 0 0 -3 3v38a3 3 0 0 0 3 3h27.062a16.984 16.984 0 1 0 22.038-25.336zm-6.17-23.3.5-.862 6.929 4-.5.862a1 1 0 0 1 -1.366.367l-5.2-3a1 1 0 0 1 -.365-1.366zm-7.063-1.77a2.993 2.993 0 0 1 4.093-1.094l1.734 1-.5.861a3 3 0 0 0 1.1 4.1l5.2 3a3 3 0 0 0 4.1-1.1l.5-.863 1.734 1a2.991 2.991 0 0 1 1.093 4.093l-7.565 13.1a16.938 16.938 0 0 0 -23.9 11.459l-3.5-2.017a3 3 0 0 1 -1.093-4.093zm-35.867 8.406h28.7l-3.464 6h-26.236v-5a1 1 0 0 1 1-1zm-1 39v-31h4v32h-3a1 1 0 0 1 -1-1zm6 1v-32h19.084l-6.951 12.041a5 5 0 0 0 1.827 6.825l4.131 2.381a16.866 16.866 0 0 0 2.509 10.753zm35 6a15 15 0 1 1 15-15 15.017 15.017 0 0 1 -15 15z"/><path d="m45 34a11.013 11.013 0 0 0 -11 11h2a9.01 9.01 0 0 1 9-9z"/><path d="m52.293 36.293-6.008 6.007a2.951 2.951 0 0 0 -1.285-.3 3 3 0 1 0 3 3 2.951 2.951 0 0 0 -.3-1.285l6.008-6.008zm-7.293 9.707a1 1 0 1 1 1-1 1 1 0 0 1 -1 1z"/><path d="m14 25h8v2h-8z"/><path d="m14 29h6v2h-6z"/><path d="m14 33h6v2h-6z"/><path d="m14 37h6v2h-6z"/><path d="m14 41h8v2h-8z"/><path d="m14 45h12v2h-12z"/><path d="m14 49h12v2h-12z"/></g></svg>